PathFileType	3	(X/Y/Z)	results
DataRate	CameraRate	NumFrames	NumMarkers	Units	OrigDataRate	OrigDataStartFrame	OrigNumFrames
30.0	30.0	4	85	mm	30.0	210	239
Frame#	Time	head			nose			neck			shoulder_r			elbow_r			wrist_r			shoulder_l			elbow_l			wrist_l			hip_r			knee_r			ankle_r			hip_l			knee_l			ankle_l			heel_r			heel_l			mtoe_r			ltoe_r			mtoe_l			ltoe_l			asis_l			asis_r			psi_r			psi_l			mhnd_r			lhnd_r			mhnd_l			lhnd_l			l_lat_knee			r_med_wrist			l_lat_ankle			r_med_ankle			r_lat_knee			xiphoid			l_med_ankle			r_med_knee			l_med_elbow			navel			r_lat_elbow			r_lat_wrist			l_med_wrist			l_lat_elbow			l_med_knee			r_med_elbow			r_lat_ankle			l_lat_wrist			chin			T10			r_eye			l_eye			l_ear			r_ear			spinal_cord_8			spinal_cord_12			spinal_cord_27			spinal_cord_33			up_arm_r_0			up_arm_r_5			up_arm_l_0			up_arm_l_5			front_torso_11			front_torso_7			front_torso_4			front_torso_1			front_torso_10			thigh_r_2			thigh_r_3			thigh_l_1			thigh_l_5			shank_l_0			shank_l_4			shank_r_1			shank_r_2			foot_r_1			foot_r_3			foot_r_5			foot_r_6			foot_r_7			foot_l_1			foot_l_7			foot_l_0			foot_l_4			foot_l_5			foot_l_6			
		X1	Y1	Z1	X2	Y2	Z2	X3	Y3	Z3	X4	Y4	Z4	X5	Y5	Z5	X6	Y6	Z6	X7	Y7	Z7	X8	Y8	Z8	X9	Y9	Z9	X10	Y10	Z10	X11	Y11	Z11	X12	Y12	Z12	X13	Y13	Z13	X14	Y14	Z14	X15	Y15	Z15	X16	Y16	Z16	X17	Y17	Z17	X18	Y18	Z18	X19	Y19	Z19	X20	Y20	Z20	X21	Y21	Z21	X22	Y22	Z22	X23	Y23	Z23	X24	Y24	Z24	X25	Y25	Z25	X26	Y26	Z26	X27	Y27	Z27	X28	Y28	Z28	X29	Y29	Z29	X30	Y30	Z30	X31	Y31	Z31	X32	Y32	Z32	X33	Y33	Z33	X34	Y34	Z34	X35	Y35	Z35	X36	Y36	Z36	X37	Y37	Z37	X38	Y38	Z38	X39	Y39	Z39	X40	Y40	Z40	X41	Y41	Z41	X42	Y42	Z42	X43	Y43	Z43	X44	Y44	Z44	X45	Y45	Z45	X46	Y46	Z46	X47	Y47	Z47	X48	Y48	Z48	X49	Y49	Z49	X50	Y50	Z50	X51	Y51	Z51	X52	Y52	Z52	X53	Y53	Z53	X54	Y54	Z54	X55	Y55	Z55	X56	Y56	Z56	X57	Y57	Z57	X58	Y58	Z58	X59	Y59	Z59	X60	Y60	Z60	X61	Y61	Z61	X62	Y62	Z62	X63	Y63	Z63	X64	Y64	Z64	X65	Y65	Z65	X66	Y66	Z66	X67	Y67	Z67	X68	Y68	Z68	X69	Y69	Z69	X70	Y70	Z70	X71	Y71	Z71	X72	Y72	Z72	X73	Y73	Z73	X74	Y74	Z74	X75	Y75	Z75	X76	Y76	Z76	X77	Y77	Z77	X78	Y78	Z78	X79	Y79	Z79	X80	Y80	Z80	X81	Y81	Z81	X82	Y82	Z82	X83	Y83	Z83	X84	Y84	Z84	X85	Y85	Z85	
210	7.0	127.5117763967559	1552.7957724312512	-620.3480187271733	119.90060371295235	1359.1675399676678	-692.1415418350119	87.0318061091574	1276.4730941097382	-495.179418358576	254.9070628825781	1214.572054599938	-509.4636297778453	369.15944031906076	1070.3039940239519	-696.2638507183539	189.91183598535713	1171.8258601687382	-784.0291880067617	-60.686874480327006	1216.6726326896564	-512.6090582282136	-183.31361944065884	1084.2477313978852	-719.6590727452187	16.710772836276366	1160.0959078401033	-817.72202679449	199.73648072326057	814.587933929483	-258.9852760724233	278.67063826378035	487.2943693730522	-454.85693857211834	314.26747566251004	108.59275182409905	-370.2998830910954	-11.759192228277412	809.7874055140828	-263.95170944187527	-104.3744458393008	477.1982333556751	-460.5325850882289	-123.11584546303781	102.69786055219215	-358.8021982086436	312.6890303177436	51.45829012509848	-349.0591506739454	-130.81691398179348	37.2276539679881	-328.22074183189187	326.1753720339258	51.755488158110246	-575.7407390686882	386.31899104522796	34.63344629904468	-511.07048351962845	-96.27484885353016	62.254808051428576	-552.197310180597	-178.74549836363735	31.348553268052076	-507.8182049369604	-57.16965610038617	823.4227160482299	-346.5266736295251	252.3811824190865	830.7881502115011	-334.3278266839948	143.31256590339777	950.4409328545757	-245.03095189703944	38.02951836303639	943.2079431434162	-251.78619770102617	138.2254712682055	1183.6535736487792	-834.7274391661701	123.72368358728302	1224.6791181516915	-803.4921209023287	70.21158980097725	1166.673036745602	-871.6573654901932	93.79203372712321	1199.0037931431634	-836.2394014222959	-151.57573114195816	483.4301523269021	-449.02892333199236	202.43690428018385	1157.1180710262495	-804.5341028387036	-175.85447923230748	93.19723426257642	-346.11892517804176	284.8078475225135	91.97625788011904	-388.5756310885189	319.8432242007222	482.78677281438934	-443.5630935826881	103.62371642000869	1087.4090394326165	-517.0189645571546	-95.14269807166094	85.89397680972166	-371.77737731446206	239.245171618822	482.3501157736601	-467.2719450625669	-174.486065983341	1056.8154761047049	-695.245134183795	109.95110226344559	882.9709948012317	-447.91667317490993	385.7897924406696	1105.8708841648345	-704.3775903457197	186.29773758820963	1176.1667686656058	-753.4803553939698	-3.7939098386412518	1151.8267548988063	-841.8690760272581	-194.81691422904223	1124.2753483044828	-723.23252688719	-60.1375951173992	482.2740878442701	-480.36131875443084	349.1750100670744	1044.0005588443735	-679.6919276843604	362.40454665650674	96.79110831314757	-359.13281254575526	16.804029385399794	1173.311164115119	-789.1137733984044	115.61897228413693	1292.958435621278	-655.159722738464	84.36205729550876	1170.539347060963	-344.3615143858301	153.55358448586736	1387.411327222036	-698.0697916469671	86.58609642079705	1390.1440220756424	-700.9436831438409	32.442861846054186	1412.9088803541852	-606.2695819454913	198.30227402117688	1403.8508138399416	-595.9585749423644	80.10681919527183	1348.391463872203	-473.3283000354349	78.43459525426648	1261.1870128242956	-382.41304468353985	103.40322365206073	1027.9145893229945	-300.5416934670009	85.84262057349824	1156.9356066739776	-352.5087958093019	285.26199664625847	1164.2233495248952	-633.8225191902428	355.85803336299017	1124.5391268723993	-597.9464124827265	-100.12324938965261	1215.6757556890946	-562.1020320463132	-154.83038972253397	1086.2677076493417	-636.2793236485957	154.22057093511995	926.376656959708	-418.8672439110649	110.71150772892827	997.1766050159397	-511.7871668181645	36.92838563225521	1121.729077865894	-544.4764928767025	33.881696314326184	946.9465052799466	-444.7227404189037	183.06919712832232	1166.410099685311	-555.763943282734	225.11961535304286	636.5351263095844	-368.8582126660477	323.09107914926614	611.3744778869233	-358.24118027667356	-30.076029110299864	566.9883117101775	-409.02931621735473	-135.51809526400638	744.6114717268533	-312.7044316948396	-186.67671961638595	195.87852861404602	-386.2101790410466	-64.08415215649622	327.60385781088473	-430.40610087721257	350.2075858824121	333.45347377152734	-404.2260437669686	259.639426278011	283.0402981079606	-424.4898212517538	346.7056898431419	40.17833948366052	-556.264388006299	369.6709700739472	37.492066810604385	-537.654077723049	309.3533295425588	61.591825043294975	-493.18632499959244	345.99406781247893	61.85339723967511	-476.8415279094578	373.7452827691691	43.03846361054366	-463.16585247006344	-145.75856280455443	39.75586070711693	-533.7983639952115	-180.01187526223734	55.57564703767177	-428.68881817635116	-161.31596937759707	36.686908221145806	-527.8194266360035	-126.71230993156496	43.42525438599699	-540.5034822802484	-142.38976630309872	51.67461360702897	-481.7984374598351	-117.34143264928953	64.82405540829346	-447.3055906089978	
211	7.033333333333333	136.1370235699478	1577.2450927524535	-615.6543658251084	122.62778053756546	1382.0578048224395	-682.1641793870758	87.77024376534384	1300.4247613375537	-483.9353430491641	250.5855365452183	1240.06563747756	-494.5252399072445	371.3724589723144	1096.853469751532	-677.9972976748254	194.89449548306987	1198.8404335452733	-770.6975404634121	-57.27045545325919	1240.2589835683375	-502.58484045723696	-182.9669033528951	1105.758411989399	-706.4313042567021	6.528003135976734	1181.2657236060068	-823.7742743888867	201.18111982444597	832.4393388061791	-263.1575397150251	269.8120905873448	491.5778907134111	-437.42134972871673	313.9780096314377	110.39694908389963	-369.72787196286646	-10.218542507438533	824.6576112507092	-268.4260967206827	-94.29587945393847	480.6348621507969	-445.6908215711758	-122.04552178498459	103.12543560967352	-358.1269527235426	313.4177530183161	53.067858312673316	-350.5341882491889	-131.1264425784669	37.70557299399177	-329.03480658669855	326.7145980704876	55.343103845027336	-577.2157477685864	386.76643636111	37.11943242084331	-512.7616113945625	-94.78120089183992	61.52310822148027	-552.8578712974912	-177.867022534027	31.62436426759717	-508.93838872309703	-55.701437791664894	837.7184359698364	-351.0540443368174	253.69719123640078	849.4431436355496	-338.4127350284586	142.82531978796578	967.4707113595985	-249.17370361136398	37.66443760583207	958.7576825756705	-256.08323134528746	144.81348866848532	1210.9618002673485	-822.9149034731364	129.31348814736475	1251.7839655441926	-791.8932487670811	54.77732787055287	1187.2718240089666	-882.5156245721874	81.24427986854562	1220.3760099666463	-849.96780363556	-142.311163444691	486.4891193228996	-437.26005931177014	208.06531189549926	1184.2673086503964	-790.8916375054583	-175.04956431772	94.36665076488492	-346.0295988912554	285.21870645544936	93.90472731769434	-389.19295937721984	311.4844039109439	487.0684998657895	-427.89606038424404	103.97696059805634	1112.481443140294	-514.1367587673824	-94.39580356191964	86.18217092609044	-371.6044013205651	230.27947543454664	486.342184764583	-449.42693229826267	-172.65498518197552	1078.4389758986156	-682.4770252671177	109.82200575601293	905.1640906809666	-454.17487591711694	388.2155036012028	1132.4817356569688	-685.3691070133657	190.32255754464728	1202.9880437156432	-740.2503553526556	-16.04231843530024	1172.4363166995886	-845.7861585986815	-195.613807810856	1145.4897608454628	-709.3946143018245	-49.90232355043585	484.0437235082378	-465.51982853144614	350.87419421414256	1070.4433146875242	-662.2428811770197	362.2410898538609	99.30755193233942	-358.37621057502633	9.143262049214895	1194.9772661740583	-795.5211705099466	115.14728688562222	1317.137854951806	-643.446287744441	84.76888732485786	1187.9059932513226	-337.9708091064001	157.42749040230404	1408.8535384420347	-688.1930791476339	90.6779339246859	1413.9834976734842	-692.5002312890136	35.61855638838715	1441.4384984159205	-599.6153458666737	200.79062438810158	1426.5369391717738	-585.692647627355	80.98216329620269	1371.3168758686213	-458.91717393392986	79.06056673988476	1280.1660831598967	-371.96410195586907	103.47663283841572	1043.435920795823	-300.5143989221195	86.22640460024789	1174.6742073612281	-346.7130914331457	285.24718678675737	1190.3564912783788	-618.0125601838528	354.63774810710424	1150.5974914521528	-579.9349434963887	-98.22800472461971	1238.490373964541	-550.8044118453743	-151.8976683738826	1108.0861415159973	-623.988344874365	154.16271631381971	947.1421126535314	-423.19982526432625	110.86979805149768	1022.0906875380305	-512.9116842909975	37.37402926952291	1148.1298255397446	-540.0845991229397	33.88609793234818	969.0980327883877	-448.1906785177324	183.61718061243275	1192.9537864495746	-549.2873294717886	221.03034536736553	647.0087911248232	-361.3445462515707	318.87949558557625	621.0369319728086	-351.58782252162786	-22.596015931507466	573.221215582201	-398.66033007707256	-132.00193033592734	755.7142871772307	-316.97113629667007	-183.33599838287802	198.6932265531364	-382.294986352495	-57.563783423660574	329.13814454235677	-421.01517192035595	344.57511427894303	337.4149195350124	-392.7860257265543	255.63470137686843	285.72741581914437	-416.71728990121545	347.16309103976937	43.4143380732223	-557.865909166422	370.12063794101397	40.363249742339974	-539.3023506156869	310.045783234728	64.5585419099955	-494.5586716502417	346.7012210136941	64.36086064614923	-478.24596751369063	374.3044691017987	45.1876161163304	-464.76994632971275	-144.61719916215944	39.59738627187162	-534.7195750128128	-179.43532030519938	56.166043506415505	-429.91141829956877	-160.2460251047768	36.709162561407545	-528.837651514576	-125.4886602535859	43.047881658316804	-541.3056125544695	-141.48778599733495	51.6805359197411	-482.742636972246	-116.54669671539456	64.70755010339238	-448.1258449590924	
212	7.066666666666666	141.83160045635623	1598.348417517291	-609.073164378603	125.22772916892109	1401.9788697687345	-671.2619454578901	90.19921611428144	1321.5629841315156	-473.0134037191803	252.3632086935277	1263.1485530083014	-483.4193125978879	378.3665501043795	1122.2317597903786	-665.1521300474208	203.5992875909262	1223.6253288638968	-761.6658363192623	-58.84243430767269	1258.933315115676	-493.9792325774673	-183.2958153295041	1127.7670786688523	-700.7403409653951	3.644473827669664	1202.2287380265518	-822.7560608860952	200.85316035986608	846.7162850069651	-269.66304173302876	262.1442327710252	494.68244396001484	-421.6672251792565	314.82212797420163	112.17287312928798	-369.28962330152405	-10.501398156039288	837.5718469514643	-274.5374707149719	-84.28903998529229	482.23531637129145	-430.2237922450567	-121.51368215569974	102.70348451276362	-355.9220054168161	315.39531176824136	54.76360242297076	-351.836758613318	-132.02867982951528	37.53577892969774	-328.1350276553744	326.65557550327713	58.599769137618026	-578.6075736276732	387.3773827455871	40.279321980903894	-514.8119270741133	-95.75451390081166	59.10818133605863	-552.1971445218775	-179.43667825131655	31.5707122115452	-507.8677777159862	-56.27988460490059	851.564069532914	-356.84910123409685	253.06287141252847	865.2089472879566	-344.78014411619165	141.61736761813103	981.120387005959	-253.50516848701244	36.50099351294981	971.7946887780336	-260.29109752887996	154.79237671708609	1235.7628758896565	-815.0723263519664	138.20400849094187	1276.2536226258358	-784.1794837652628	50.36908184760381	1208.0943561457998	-882.7312418379926	77.9627112956949	1240.8392612539358	-850.7607847401024	-133.01645131089992	487.38441795471357	-425.10347845283286	217.39062642840153	1209.2890912077191	-781.6137483014903	-174.83380100317947	94.75444920115133	-344.6850765562131	286.2533821222915	95.84661717306957	-389.1707865698928	304.3045089973302	490.2936551845198	-414.0491161255393	104.9341239505628	1134.9715153889274	-511.27539949066136	-94.10326617957577	85.59931934479809	-369.6820703353049	222.51319096675368	488.78172157445493	-433.18653338703905	-173.08667862147612	1100.0578810588397	-677.193183555656	108.76074705685245	925.2073126466759	-460.3400209988658	395.1430388905173	1158.0266642877395	-671.8363871307798	198.21533223413422	1227.5245624209606	-731.3187545783378	-19.57348797500777	1193.6799688950969	-844.1977418995292	-195.9662681535009	1167.5311250996422	-703.1037532018549	-39.59160981123563	484.14847232980026	-449.7066460195709	357.6783357243459	1095.561862791843	-650.0991845668633	363.3986828716976	101.67461887195672	-358.7414087680472	7.120899869024811	1215.7957332151273	-794.5260243805379	115.50586186224939	1338.1826869619106	-631.1974329177015	85.62183040285325	1202.8542417639185	-332.07934642000765	160.73960457741694	1427.8438930272869	-677.2021521892373	94.22277082323437	1434.3506062171186	-682.993943106369	37.958654469454444	1465.2283834371408	-591.9234970481	202.43966463035778	1446.9990547760424	-574.2769984014373	83.90856480956074	1391.3604918466785	-444.97032350437183	80.84287198309103	1296.546982427974	-362.0607569250023	102.94071716327403	1056.739565187737	-300.8524078603603	87.00376137415077	1190.0016150672952	-341.3816186433786	290.24220471343034	1214.6835748587257	-606.4553846901864	358.9797145791207	1175.0559973701404	-567.0784523568724	-99.53588426121291	1257.9389477262614	-542.4439646150615	-152.67683058927898	1128.7356678821827	-618.1019912295649	153.32530795750907	965.4168019007541	-427.4021462935798	111.05236825570493	1044.5561485476726	-513.9454630787211	38.74751873974859	1172.2880190661526	-535.909925918903	33.346881791607885	989.4788681853012	-451.8820222216774	185.4044600332222	1216.1969941080413	-542.5942743118471	216.76145496345407	655.0168978470676	-355.78759773184964	314.6913601756275	628.9757954128049	-347.08231351343176	-15.645289540297465	577.8942361711972	-388.007719211835	-129.72988783367967	764.1236341004511	-322.81711063595753	-180.36148384969542	200.4150599580709	-377.44416368871526	-51.2571862515622	329.1866887574458	-410.3641790808781	340.4783600591874	340.51504117651314	-383.66433102852346	252.4419056031344	287.926777049074	-408.9379863920991	347.3397360198997	46.655319269117946	-559.5196666563827	370.47813789287704	43.60700536012715	-541.1815656950205	310.67609626721793	67.18152120432033	-495.7463903510513	347.4762341775544	67.07563187860873	-479.76192445045564	375.30121427564904	47.964373734482244	-466.6590220065737	-146.07279216881278	38.55165154109812	-533.7889465205923	-180.1544487512299	56.6104747994415	-428.98488522887885	-161.7519612064723	36.09262380233622	-527.846228164997	-126.8829585443203	41.48049170916491	-540.4489007563973	-142.48741640080024	50.85899477357573	-481.894127863986	-117.12470305768223	63.45819064734751	-447.42564432319386	
213	7.1	142.3534215541788	1615.9567863099796	-598.2065635518761	127.39632964814243	1419.4542518692533	-660.393151148522	92.85176038572199	1339.8296547994219	-463.25911330470745	256.7128343137749	1284.216622558693	-477.2705970804742	383.98069279040476	1141.6899290717072	-656.8541025538528	211.25292993684968	1243.9299868203086	-756.1075051424218	-63.78390929987574	1275.383238738433	-490.1291629415241	-183.58691480931336	1147.4531626270857	-701.6108809935681	11.698478550177416	1223.8933688316406	-808.3795859031561	199.13123385556358	858.1740028840363	-278.33899078135744	255.4222147220593	496.8559068663715	-407.1665718295648	316.4535674264596	113.9175704560484	-368.88668033322807	-12.184264047311267	848.1400187789714	-283.15663748318275	-75.06426604045225	482.2528678712876	-414.82495880492445	-122.01785052717418	101.56105184616405	-353.0192712040571	318.1637055186939	56.70657014806393	-352.79156552141217	-134.1454898137087	36.721876364705125	-326.5193302633483	326.7661803459123	59.34608563719081	-579.69582427728	388.47740570262937	42.29682252656133	-516.5000295569193	-97.5207202414248	56.134788297684544	-550.7218748032421	-182.03809628380031	31.7111779473647	-506.1527150406089	-58.20207992004367	864.9677921237067	-364.8012533472792	251.0923643706185	879.7298465469802	-352.8091061059628	139.25372862604047	991.5756073815552	-257.0524943879145	34.17181816114694	981.9740633093726	-263.9858939796051	163.25244125718808	1256.1951097146355	-810.211179891588	146.5449035628723	1296.9307546624182	-779.7069560917987	62.57065221597094	1230.9108772233365	-864.7479575599638	87.90063463595497	1262.83321581403	-830.1776869042131	-124.33614996228464	486.57980523705464	-413.5693011023602	225.20590381587164	1229.413201150532	-775.8109409662642	-175.72997826875465	94.45278858013917	-343.17189930461603	287.74601791407673	97.70675913401095	-388.66208736514307	298.0061006179579	492.58782623692014	-401.4532435313953	105.6529188842196	1154.6755801270358	-508.5534066559183	-94.68320401531527	84.28079687610551	-366.70987545952045	215.74012220814524	490.1324988089018	-418.32412232766336	-174.5074066857704	1119.4376987583564	-677.9636603736423	106.73086282687167	943.0872463571895	-465.66644327601455	401.1043559186271	1177.3353290598955	-663.456426196044	205.4923014978564	1247.993036188143	-725.8512139349851	-9.95972044284335	1215.9107717144404	-831.598144175765	-195.61486185299165	1187.4103217826992	-704.0724664261696	-29.800964251613873	482.67319549667235	-433.36387790074446	362.9062935261542	1115.2297396428369	-641.9677041033669	365.44826714877365	104.0242205910728	-359.7871811396055	13.194698056741172	1236.8172795959651	-779.6773609838767	116.69139387121507	1355.7354492109007	-620.4563091660747	86.03224669050753	1215.8835010499502	-327.00210730161314	163.03697672862623	1445.3222922836442	-665.488986704049	96.68486968275018	1451.7888676540845	-672.9691354188197	38.13105059325181	1482.8275925808719	-583.4093124772427	202.1217107035785	1464.7042740960762	-561.5845841822504	87.20036215467998	1408.5739040820936	-432.6002057309515	82.52559299352689	1310.7037164268224	-353.4006528737038	101.46130163762476	1068.4872571025046	-301.2949920411577	87.32181212315038	1203.3803499296191	-336.7816905129255	295.7989731603675	1235.0073490058492	-599.6318189969056	363.7350432912068	1195.027849163666	-559.2330204048847	-102.9604003305503	1275.3089363868698	-539.8380446105604	-155.5421771485267	1147.4091850939863	-618.0582150028172	151.55666265963646	981.4779782459765	-430.9604484215306	110.73694788474236	1064.36223669316	-514.6487623384902	40.05640382940993	1193.6873889785086	-532.116598951712	32.01808442170934	1007.876931120866	-455.1822093927719	187.25161627419362	1236.0803134785183	-536.2815020593886	212.3707479504431	661.1409680854214	-351.9723153378934	310.43777839932284	635.3514257433739	-344.10184083461684	-9.659395884189529	580.9042316643431	-377.5657343915039	-128.3122268828549	770.002084574264	-331.63091765944085	-178.2760695993515	201.15139921811763	-372.7827358310153	-45.756020725221994	327.98326499374076	-398.9723124912875	337.4866867252519	343.0683127553101	-376.13687838588237	249.8933966433545	289.64153490751835	-401.19072906792513	347.8407012318226	47.819501055775504	-560.7787687770186	371.2300087325766	45.219263246011984	-542.6916776963579	311.6135254054767	68.19069052001764	-496.70705436282293	348.5920801552623	68.7177674002787	-481.14835289143434	376.84265353578456	50.09357180269841	-468.2564872475684	-148.49484685998948	37.42074009360037	-532.1534980833628	-181.74699865688942	57.07005192868761	-427.36909742468373	-164.24021041284763	35.534202060205075	-526.1765790256618	-129.22577651484352	39.65136312495066	-538.8549948277197	-144.3937185566811	49.798865731758625	-480.31373947505426	-118.54797447242201	61.63963411419628	-445.9353008944969	
